{"title":"Dead Sea 2014 DVDRiP XViD-WGAF","uid":10170921,"size":905810703,"categoryP":"video","categoryS":"movies","magnet":"?xt=urn:btih:8a9bd1ac7ac5236707157e366a00a06e22b2511c&amp;dn=Dead+Sea+2014+DVDRiP+XViD-WGAF&amp;tr=udp%3A%2F%2Ftracker.openbittorrent.com%3A80&amp;tr=udp%3A%2F%2Fopen.demonii.com%3A1337&amp;tr=udp%3A%2F%2Ftracker.coppersurfer.tk%3A6969&amp;tr=udp%3A%2F%2Fexodus.desync.com%3A6969","seeders":0,"leechers":0,"uploader":"Xetron","files":2,"time":1400409710,"description":"PLOT\nGenre : Action / Adventure / Sc-Fi\n\nPlot : A Marine Biologist is assigned to investigate the mysterious deaths of marine life in an inland salt water lake that have been attributed to a creature thought to have been the stuff of legend.\n\nINFO\n\nVideo \nID                                     : 0 \nFormat                                 : MPEG-4 Visual \nFormat profile                         : Simple@L5 \nFormat settings, BVOP                    : No \nFormat settings, QPel                    : No \nFormat settings, GMC                   : No warppoints \nFormat settings, Matrix                  : Default (H.263) \nCodec ID                               : XVID \nCodec ID/Hint                            : XviD \nDuration                               : 1h 30mn \nBit rate                               : 1 194 Kbps \nWidth                                    : 720 pixels \nHeight                                 : 300 pixels \nDisplay aspect ratio                   : 2.40:1 \nFrame rate                             : 29.970 fps \nColor space                              : YUV \nChroma subsampling                     : 4:2:0 \nBit depth                                : 8 bits \nScan type                                : Progressive \nCompression mode                       : Lossy \nBits/(Pixel*Frame)                     : 0.185 \nStream size                              : 772 MiB (89%) \nWriting library                          : Lavc55.61.100 \n\nAudio \nID                                     : 1 \nFormat                                 : MPEG Audio \nFormat version                         : Version 1 \nFormat profile                         : Layer 3 \nMode                                   : Joint stereo \nMode extension                         : MS Stereo \nCodec ID                               : 55 \nCodec ID/Hint                            : MP3 \nDuration                               : 1h 30mn \nBit rate mode                            : Constant \nBit rate                               : 128 Kbps \nChannel(s)                             : 2 channels \nSampling rate                            : 48.0 KHz \nCompression mode                       : Lossy \nStream size                              : 82.6 MiB (10%) \nAlignment                                : Aligned on interleaves \nInterleave, duration                   : 24 ms (0.72 video frame) \nInterleave, preload duration           : 504 ms\n &lt;a href=&quot;\nhttp://www.imdb.com/title/tt1663222/&quot; rel=&quot;nofollow&quot; target=&quot;_NEW&quot;&gt;\nhttp://www.imdb.com/title/tt1663222/&lt;/a&gt;\n\n\nSCREENS -\n","torrent":{"xt":"urn:btih:8a9bd1ac7ac5236707157e366a00a06e22b2511c","amp;dn":"Dead+Sea+2014+DVDRiP+XViD-WGAF","amp;tr":["udp%3A%2F%2Ftracker.openbittorrent.com%3A80","udp%3A%2F%2Fopen.demonii.com%3A1337","udp%3A%2F%2Ftracker.coppersurfer.tk%3A6969","udp%3A%2F%2Fexodus.desync.com%3A6969"],"infoHash":"8a9bd1ac7ac5236707157e366a00a06e22b2511c","infoHashBuffer":{"type":"Buffer","data":[138,155,209,172,122,197,35,103,7,21,126,54,106,0,160,110,34,178,81,28]},"announce":[],"urlList":[]}}